<svg width="17" height="16" viewBox="0 0 17 16" fill="none" xmlns="http://www.w3.org/2000/svg">
<path d="M15.2364 1.43156C14.383 0.570557 13.2373 0.0616902 12.0263 0.00586431C10.8153 -0.0499616 9.62763 0.35133 8.69868 1.13016C8.59182 1.21081 8.46311 1.25731 8.32938 1.26359C8.19484 1.25966 8.06505 1.21292 7.9589 1.13016C7.03037 0.350887 5.84273 -0.0507045 4.63181 0.00512969C3.4209 0.0609639 2.27526 0.57014 1.42238 1.43156C0.5051 2.34884 0 3.5687 0 4.866C0 6.16329 0.5051 7.38316 1.39141 8.26708L6.70687 14.4891C6.90716 14.7241 7.15607 14.9128 7.4364 15.0422C7.71674 15.1716 8.02182 15.2386 8.33057 15.2386C8.63933 15.2386 8.94441 15.1716 9.22474 15.0422C9.50507 14.9128 9.75398 14.7241 9.95428 14.4891L15.2376 8.30044C15.6901 7.85049 16.0489 7.31528 16.2933 6.72577C16.5376 6.13625 16.6627 5.50414 16.6611 4.866C16.6622 4.22781 16.5368 3.59575 16.2923 3.00628C16.0477 2.4168 15.6889 1.8816 15.2364 1.43156V1.43156Z" fill="white"/>
</svg>
